<?xml version="1.0" encoding="utf-8"?>
<!-- Generator: Adobe Illustrator 23.0.3, SVG Export Plug-In . SVG Version: 6.00 Build 0)  -->
<svg version="1.1" id="レイヤー_1" xmlns="http://www.w3.org/2000/svg" xmlns:xlink="http://www.w3.org/1999/xlink" x="0px"
	 y="0px" viewBox="0 0 865.4 914.5" style="enable-background:new 0 0 865.4 914.5;" xml:space="preserve">
<style type="text/css">
	.st0{fill:#040000;}
	.st1{fill:#FFFFFF;}
</style>
<title>アートボード 31</title>
<g id="レイヤー_4">
	<rect y="0" class="st0" width="865.4" height="914.5"/>
	<path class="st1" d="M443.5,458.6V356.9h-23.1v101.9l-84,108.2h29.8l66.1-84l71.1,84h30.6L443.5,458.6z M712.2,356.9h-20.9v39.3
		h-42.2v20.4h42.2v31.3h-39.1v19.6h99v-19.6h-39.1v-31.3h42.5v-20.4h-42.4V356.9z M725.4,486.3l-4.1,30.1l-9.3-30.1h-21.1l11.6,36.7
		h20.8l4.3-29.8l9.4,29.8h20.8l-11.3-36.7L725.4,486.3z M662.5,510.9h-20.3L631.6,559h20.8L662.5,510.9z M674,488.2h-6.3v78.9h78.1
		v-19.6H688v-45.2C688,494.5,681.8,488.2,674,488.2z M564.7,480.8h57v-18.9h-57V480.8z M628.2,394.9h-69.8v18.3h69.8L628.2,394.9z
		 M561.8,566.8h62.8v-52.3c0-11.2-9.1-20.2-20.2-20.2h-42.6L561.8,566.8z M581.6,514.4h17.8c3.2,0,5.7,2.6,5.7,5.7v26.6h-23.5
		L581.6,514.4z M621.7,429.2h-57v19.1h57V429.2z M567.3,381.6h52v-19.4h-52V381.6z M132.1,314.8h20.3v-97l9.9-4
		c6.9-2.8,11.4-9.4,11.4-16.8v-9.6l-21.3,8.3v-34.5h23.2v-20.1h-23.2v-36.5h-20.3v36.5h-23.8v20.1h23.8v42.5l-23.8,9.3v22.1
		l23.8-9.6V314.8z M234.9,183.4h-43.5v4c0,8.7,7.1,15.8,15.8,15.8l0,0h57.2l-17.6,31.1l-9.5-12.8h-24.9l23.4,32.2l-0.2,0.4
		l-60.4,60.8h29.5l43.2-44.5l25.2,34.7c4.5,6.1,11.6,9.8,19.2,9.8h13.9l-44.7-60.4l40.7-71.1h-47v-31.9h50.1v-19.9h-50.1v-26.9
		h-20.6v26.9h-47.3v19.9h47.3V183.4z M255.9,402.7H152.7v20.5h103.2L255.9,402.7z M300.4,566.8V376.1c0-10.6-8.6-19.2-19.2-19.2
		c0,0,0,0,0,0H108.3v209.9h20.3V377h144c4.2,0,7.6,3.4,7.6,7.6v182.2H300.4z M158.8,446.8v72.2h91V461c0-7.8-6.3-14.2-14.2-14.2
		c0,0,0,0,0,0L158.8,446.8z M230.3,499.9h-51.9V466h46.2c3.1,0,5.7,2.5,5.7,5.7l0,0L230.3,499.9z M409.1,172.1h14.3v142.6h20.3
		V172.2h28.5v-19.6h-28.5v-47.9h-20.3v47.9H395v5.4C395,165.8,401.3,172.1,409.1,172.1L409.1,172.1z M353.9,220.3v94.5h19.3V189.4
		l15.7-24.6h-22.6l-10.6,2.1l38.4-54.6h-23.4l-39.8,57.1h23.1l10.8-2.2l-34,53.2L353.9,220.3z M535.7,116.7h-42.9v19.1h42.9V116.7z
		 M493.8,145.2l-22.3-28.3h-21.8l22.3,28.3H493.8z M479,295.5h2.5l-6.8-75.1h-21.3l5.2,56.4C459.5,287.4,468.4,295.5,479,295.5z
		 M408.6,276.8l5.2-56.4h-21.3l-6.8,75.1h2.6C398.9,295.5,407.7,287.4,408.6,276.8L408.6,276.8z M540,165.2h-51.6v19.4h15.5v130.2
		h19.5V184.6H540V165.2z M152.3,819.8V682.4h20.9v-20.1h-20.9v-52.1H132v52.1h-23.7v20.1H132v137.5H152.3z M302.3,672.5
		c0-7.8-6.4-14.2-14.2-14.2c0,0,0,0-0.1,0h-37.2v-8.7h48.6v-18.1h-48.6v-21.5H232v21.5h-49.8v18.1H232v8.7h-47.4v72.6h117.7
		L302.3,672.5z M232,714.7h-30.9v-11.6H232V714.7z M232,685.6h-30.9v-11.1H232V685.6z M285,714.7h-34.2v-11.6H285V714.7z M285,685.6
		h-34.2v-11.1h28.5c3.1,0,5.7,2.5,5.7,5.7L285,685.6z M292.9,609.7H269l10.7,15.8h23.9L292.9,609.7z M273.7,819.8h7.1v-53h21.4
		v-19.4h-21.4v-8.8h-21.2v8.8h-92.1v19.4h92.1v38.9C259.6,813.5,265.9,819.8,273.7,819.8C273.7,819.8,273.7,819.8,273.7,819.8z
		 M223.1,810.5h21.8l-22.3-28.2h-21.8L223.1,810.5z M469.8,820.3h58.4v-18.4h-51.4c-5.1,0-9.2-4.1-9.2-9.2v-9.8h18.9
		c10.1,0,18.2-8.2,18.2-18.2v-38.9c0-10.1-8.2-18.2-18.2-18.2H359.9v75.4h20.9l-27.3,37.4h23l27.5-37.4h43.4v15
		C447.4,810.2,457.4,820.3,469.8,820.3C469.8,820.3,469.8,820.3,469.8,820.3L469.8,820.3z M375.7,767.9v-6h97.1v-14h-97.1v-5.5h97.1
		v-14h-97.1v-6.3h107.5c3.2,0,5.8,2.6,5.8,5.8c0,0,0,0,0,0v34.1c0,3.2-2.6,5.8-5.8,5.8h0L375.7,767.9z M522,669.2h-68.1v17.4H522
		V669.2z M432.5,624v-14.3h-92.6v86.2h92.6v-14.8h-36.6v-11.9H424v-35.3h-28.2V624H432.5z M355.9,624h23.8v9.9h-23.8V624z
		 M379.7,681.1h-23.8v-12h23.8V681.1z M409.9,646.6v9.8h-54v-9.8H409.9z M530.4,628.7H465l6.4-19h-19.1l-14.6,45.4h18.8l2.9-9.3
		h70.9L530.4,628.7z M660.8,610.1l-99.9,87.2h32.9l67-57.9l65.5,57.9h32.2L660.8,610.1z M614.8,692.4v19.2h89.7v-19.2L614.8,692.4z
		 M744.6,753.1v-19.2H574.9v19.2h48.7l-29.2,60.5l21.9-1.1l91.1-4.8l4.7,12.6h20.7l-14.5-39.1c-2.8-7.7-10.1-12.7-18.3-12.8h-7.1
		l7.6,20.4l-74.6,3.9L645,753L744.6,753.1z M752.7,219.8H668V210h42.4v-15.2H668v-12.1h61.2V158h20.5v-15.6h-20.5v-10.2
		c0-7.9-6-14.3-13.4-14.3H668v-13.6h-17.6V118H591v15.4h59.3v9h-81.6V158h81.6v8.7H591v15.9h59.3v12.1h-42.1V210h42.1v9.7h-84.7
		v16.7h187L752.7,219.8z M668.4,133.6h37.2c3.1,0,5.7,2.5,5.7,5.7v3.3h-42.9L668.4,133.6z M668.4,158.1h42.8v8.7h-42.8L668.4,158.1z
		 M735.1,293v-26.5c0-12-9.7-21.8-21.8-21.8c0,0,0,0,0,0H583.2v70.1h130.2C725.4,314.8,735.1,305.1,735.1,293
		C735.1,293,735.1,293,735.1,293z M602,298v-10.5h87.9V272H602v-10.8h105.1c5.1,0,9.2,4.1,9.2,9.2l0,0v18.4c0,5.1-4.1,9.2-9.2,9.2
		l0,0L602,298z"/>
</g>
</svg>
