<?xml version="1.0" encoding="utf-8"?>
<!-- Generator: Adobe Illustrator 27.7.0, SVG Export Plug-In . SVG Version: 6.00 Build 0)  -->
<svg version="1.1" id="レイヤー_1" xmlns="http://www.w3.org/2000/svg" xmlns:xlink="http://www.w3.org/1999/xlink" x="0px"
	 y="0px" viewBox="0 0 449.3 449.3" style="enable-background:new 0 0 449.3 449.3;" xml:space="preserve">
<g id="レイヤー_8">
	<path d="M154.4,211.3h-23.8v-16.2H156v-10.1h-25.4v-13.6h-10.4v13.6h-24v10.1h24v16.2h-22v2c0,4.4,3.6,8,8,8h29l-8.9,15.8l-4.8-6.5
		h-12.6l11.9,16.3l-0.1,0.2L90,277.9h15l21.9-22.5l12.8,17.6c2.3,3.1,5.9,4.9,9.7,5h7l-22.6-30.6L154.4,211.3z M78.4,200.1h11.7
		v-10.2H78.4v-18.5H68.1v18.5H56v10.2h12.1v21.5L56,226.4v11.2l12.1-4.8v45.2h10.3v-49.2l5-2c3.5-1.4,5.8-4.8,5.8-8.5v-4.9
		l-10.8,4.2L78.4,200.1z M255.4,242.4h-66v35.5h66c6.1,0,11-4.9,11-11v-13.5C266.5,247.4,261.5,242.4,255.4,242.4
		C255.5,242.4,255.5,242.4,255.4,242.4z M257,264.8c0,2.6-2.1,4.7-4.7,4.7H199v-5.4h44.5v-7.9H199v-5.5h53.3c2.6,0,4.7,2.1,4.7,4.7
		L257,264.8z M232.5,224.9h21.4v-7.7h-21.5V211h31v-12.5h10.4v-7.9h-10.4v-5.2c0.1-3.9-2.9-7.1-6.8-7.2c0,0,0,0,0,0h-24.2v-6.9h-8.9
		v6.9h-30.1v7.8h30.1v4.6h-41.4v7.9h41.4v4.4h-30.1v8.1h30.1v6.1h-21.3v7.7h21.3v4.9h-42.9v8.4h94.8v-8.4h-42.9L232.5,224.9z
		 M232.7,186.1h18.8c1.6,0,2.9,1.3,2.9,2.9c0,0,0,0,0,0v1.7h-21.8L232.7,186.1z M232.7,198.5h21.7v4.4h-21.8L232.7,198.5z
		 M393.3,179.5l-5.4-8h-12.1l5.4,8H393.3z M341.2,259l11.3,14.3h11L352.3,259H341.2z M385.5,196.2h-18.9v-4.4h24.6v-9.2h-24.6v-10.9
		h-9.5v10.9h-25.3v9.2h25.3v4.4H333V233h59.6v-29.6C392.6,199.4,389.4,196.2,385.5,196.2L385.5,196.2z M357.1,224.8h-15.7v-5.9h15.7
		V224.8z M357.1,210h-15.7v-5.6h15.7V210z M383.9,224.8h-17.3v-5.9h17.3V224.8z M383.9,210h-17.3v-5.6H381c1.6,0,2.9,1.3,2.9,2.9
		L383.9,210z M327.2,198.2h-10.6v-26.4h-10.3v26.4h-12v10.2h12V278h10.3v-69.6h10.6V198.2z M381.8,236.9H371v4.5h-46.6v9.9H371v19.7
		c0,4,3.2,7.2,7.2,7.2l0,0h3.6v-26.9h10.9v-9.9h-10.8V236.9z"/>
</g>
</svg>
