<svg xmlns="http://www.w3.org/2000/svg" viewBox="0 0 449.31 449.31"><defs><style>.cls-1{fill:#040000;}.cls-2{fill:#fff;}</style></defs><title>アートボード 32</title><g id="レイヤー_8" data-name="レイヤー 8"><rect class="cls-1" width="449.31" height="449.31"/><path class="cls-2" d="M154.45,211.32H130.62V195.14H156V185.07H130.62V171.44H120.2v13.63h-24v10.07h24v16.18h-22v2a8,8,0,0,0,8,8h29l-8.91,15.76-4.8-6.49H108.87l11.87,16.28-.11.19L90,277.94h15l21.91-22.53L139.73,273a12,12,0,0,0,9.71,4.95h7l-22.64-30.59ZM78.38,200.11H90.12v-10.2H78.38V171.44H68.09v18.47H56v10.2H68.09v21.54L56,226.36v11.21l12.08-4.84v45.21H78.38V228.77l5-2a9.2,9.2,0,0,0,5.76-8.53v-4.87l-10.77,4.2Zm177.06,42.3h-66v35.53h66a11,11,0,0,0,11-11V253.44A11,11,0,0,0,255.44,242.41ZM257,264.78a4.69,4.69,0,0,1-4.69,4.68H199V264.1h44.53v-7.85H199v-5.49h53.26a4.69,4.69,0,0,1,4.69,4.69Zm-24.52-39.93H253.9v-7.7H232.43V211h31V198.49H273.8v-7.93H263.44V185.4a7,7,0,0,0-6.79-7.22H232.43v-6.92h-8.92v6.92H193.44V186h30.07v4.55H182.14v7.93h41.37v4.43H193.44V211h30.07v6.15H202.17v7.7h21.34v4.92H180.58v8.45h94.78v-8.45H232.43Zm.19-38.75h18.84a2.88,2.88,0,0,1,2.88,2.88v1.66H232.62Zm0,12.43h21.72v4.4H232.62Zm160.68-19-5.4-8H375.81l5.4,8ZM341.25,259l11.3,14.32h11L352.28,259Zm44.21-62.79h-18.9V191.8H391.2v-9.17H366.56V171.76h-9.5v10.87H331.79v9.17h25.27v4.38H333V233h59.64V203.38A7.2,7.2,0,0,0,385.46,196.18Zm-28.4,28.6H341.4v-5.89h15.66Zm0-14.78H341.4v-5.61h15.66Zm26.83,14.78H366.56v-5.89h17.33Zm0-14.78H366.56v-5.61H381a2.88,2.88,0,0,1,2.87,2.88Zm-56.64-11.82h-10.6V171.76H306.36v26.42h-12v10.19h12V278h10.29V208.37h10.6Zm54.55,38.68H371v4.48H324.35v9.85H371v19.69a7.16,7.16,0,0,0,7.16,7.16h3.61V251.19h10.86v-9.85H381.8Z"/></g></svg>