<svg xmlns="http://www.w3.org/2000/svg" viewBox="0 0 2004.27 211.12"><defs><style>.cls-1{fill:#040000;}</style></defs><title>アートボード 28</title><g id="レイヤー_5" data-name="レイヤー 5"><path class="cls-1" d="M44.13,56.91H67.31V36.8H44.13V.35H23.83V36.8H0V56.91H23.83v42.5L0,108.72v22.12l23.83-9.55v89.2h20.3v-97l9.89-4A18.15,18.15,0,0,0,65.39,92.67V83.06l-21.26,8.3ZM194.24,79h-47V47.11H197.3V27.25H147.21V.35H126.65v26.9H79.33V47.11h47.32V79H83.18v4A15.83,15.83,0,0,0,99,98.9h57.23L138.65,130l-9.48-12.81H104.3l23.41,32.14-.21.37L67.13,210.49H96.66L139.9,166l25.28,34.7a23.73,23.73,0,0,0,19.17,9.76h13.88l-44.66-60.36Zm150.94,37.05,5.17,56.42a20.44,20.44,0,0,0,20.36,18.68h2.55l-6.78-75.1Zm35-35.79h15.46V210.49h19.52V80.3h16.6V60.94H380.21ZM364,48.25H335.5V.35H315.21v47.9H286.69v5.43a14.18,14.18,0,0,0,14.18,14.18h14.34V210.49H335.5V67.86H364Zm63.44-35.9H384.54V31.46h42.92ZM257.93,60.43l-10.62,2.09L285.67,7.89H262.3L222.48,65H245.6l10.83-2.18-34,53.21H245.6v94.5h19.26V85.07l15.68-24.64Zm19.52,130.76H280a20.43,20.43,0,0,0,20.35-18.67l5.17-56.43H284.24ZM385.56,40.85,363.26,12.6H341.48l22.31,28.25ZM605.12,140.4H475v70.09H605.12a21.76,21.76,0,0,0,21.76-21.76V162.15A21.75,21.75,0,0,0,605.12,140.4Zm3,44.12a9.24,9.24,0,0,1-9.24,9.24H493.74V183.19h87.88v-15.5H493.74V156.87H598.85a9.24,9.24,0,0,1,9.24,9.24Zm-48.38-78.79h42.36V90.54H559.71V78.42h61.18V53.73h20.46V38.08H620.89V27.9c0-7.87-6-14.25-13.38-14.25h-47.8V0h-17.6V13.65H482.79V29.09h59.32v9H460.48V53.73h81.63v8.74H482.79v16h59.32V90.54H500v15.19h42.1v9.71H457.4v16.68h187V115.44H559.71Zm.39-76.44h37.16A5.68,5.68,0,0,1,602.94,35v3.26H560.1Zm0,24.51h42.84v8.69H560.1ZM1008.8.56H985.67V102.5l-84,108.2h29.76l66.06-84,71.07,84h30.61L1008.8,102.24ZM1184.57,5.8h-52V25.2h52Zm68.74,140.09a14.07,14.07,0,0,0-14.06-14.07H1233V210.7h78.08V191.07h-57.76Zm37.41-16L1286.56,160l-9.32-30.13h-21.11l11.61,36.68h20.85l4.32-29.76,9.42,29.76h20.85l-11.35-36.68Zm-34.16-38.36h-39.09v19.63h99V91.54h-39.09V60.28h42.44V39.88h-42.44V.56h-20.87V39.88h-42.17v20.4h42.17Zm-69.62-18.67h-57V92h57Zm-57,51.55h57V105.55h-57Zm66.94,78.19h20.85l10-48.1h-20.32ZM1123.66,56.82h69.81V38.48h-69.81Zm45.93,81.09H1127v72.58h62.81V158.16A20.25,20.25,0,0,0,1169.59,137.91Zm.72,52.46h-23.48V158h17.75a5.73,5.73,0,0,1,5.73,5.72ZM727.92,66.82H831.11V46.37H727.92ZM856.36.56H683.47V210.49h20.25V20.64h144a7.62,7.62,0,0,1,7.62,7.62V210.49h20.25V19.76A19.2,19.2,0,0,0,856.36.56Zm-45.5,89.92H734v72.24h91V104.64A14.16,14.16,0,0,0,810.86,90.48Zm-5.42,53.08H753.58V109.64h46.19a5.67,5.67,0,0,1,5.67,5.67Zm729.71-14.12H1513.9v8.83h-92.11v19.44h92.11v38.86A14.13,14.13,0,0,0,1528,210.7h7.12v-53h21.42V138.27h-21.42ZM1523.32.56,1534,16.36h23.85L1547.18.56Zm19,48.61h-37.29V40.52h48.62V22.43h-48.62V1h-18.76V22.43h-49.84V40.52h49.84v8.65h-47.43v72.62h117.68V63.37A14.2,14.2,0,0,0,1542.37,49.17Zm-56,56.43h-30.88V94h30.88Zm0-29.16h-30.88V65.37h30.88Zm53,29.16h-34.19V94h34.19Zm0-29.16h-34.19V65.37h28.52a5.67,5.67,0,0,1,5.67,5.67Zm-84.14,96.63,22.3,28.26h21.78l-22.3-28.26Zm-27.62-120H1406.6V1h-20.3V53.1h-23.69V73.22h23.69V210.7h20.3V73.22h20.91Zm259.26,18.84h-36.61V60h28.12V24.71h-28.12V14.84h36.61V.56h-92.59V86.74h92.59Zm-76.58-57.1H1634v9.87h-23.79Zm0,22.59h54v9.84h-54ZM1634,71.94h-23.79V60H1634ZM1725.74.56h-19.1L1692.05,46h18.84l2.92-9.35h70.92V19.51h-65.35Zm-3.81,182.92V173.7h18.91a18.24,18.24,0,0,0,18.24-18.24V116.53a18.25,18.25,0,0,0-18.24-18.25H1614.25V173.7h20.87l-27.27,37.42h23l27.48-37.42h43.38v15a22.43,22.43,0,0,0,22.43,22.43h58.43V192.71h-51.43A9.23,9.23,0,0,1,1721.93,183.48ZM1630,158.71v-6h97.16v-14H1630v-5.47h97.16v-14H1630V113h107.47a5.78,5.78,0,0,1,5.78,5.78v34.13a5.78,5.78,0,0,1-5.78,5.78ZM1776.32,60h-68.09V77.41h68.09Zm84.23,42.43h89.73V83.24h-89.73Zm46-72.18,65.5,58h32.18L1906.59,1l-99.93,87.24h32.93Zm-85.83,113.64h48.71l-29.23,60.46,21.89-1.14,91.1-4.75,4.69,12.64h20.73L1964.13,172a19.57,19.57,0,0,0-18.35-12.75h-7.12l7.56,20.37-74.55,3.89,19.13-39.59h99.55V124.7H1820.76Z"/></g></svg>