<svg xmlns="http://www.w3.org/2000/svg" viewBox="0 0 1330.38 492.93"><defs><style>.cls-1{fill:#040000;}</style></defs><title>アートボード 29</title><g id="レイヤー_6" data-name="レイヤー 6"><path class="cls-1" d="M681.57,472.4v13.05h648.81V472.4Zm548.95-104.78-29.13,33.57,4.48-33.57h-15.64l-9.83,74.57h15.69l2.31-17.78,9.81-11,16.13,28.8h17.53l-23.36-40.36L1249,367.62Zm-147.6,74.57,9.78-74.57h-15.53l-3.87,29h-30.46l3.87-29h-15.64l-9.83,74.57h15.69l4.28-32.34h30.35l-4.27,32.34ZM822.85,380.76a10.44,10.44,0,0,1,7.16-2.49,12.31,12.31,0,0,1,6.72,1.83,14.32,14.32,0,0,1,4.89,5.55l8-10.34a22.35,22.35,0,0,0-8.4-7.1,25.88,25.88,0,0,0-11.31-2.37q-10.54,0-17.47,6.44a22.14,22.14,0,0,0-5.73,23.28,18.15,18.15,0,0,0,3.49,5.93q3.15,3.52,12.32,8.51l2.4,1.32a14.18,14.18,0,0,1,4.94,4.23,9.51,9.51,0,0,1,1.63,5.45,9.78,9.78,0,0,1-2.83,7.44q-2.82,2.7-7.82,2.7a14.94,14.94,0,0,1-8.15-2.19,19.05,19.05,0,0,1-6.11-6.78l-8.45,10.65a28.32,28.32,0,0,0,9.88,8.55,27.62,27.62,0,0,0,12.63,2.81q11.65,0,18.72-6.42t7-16.86q0-7.48-3-12.22T832,399c-.61-.38-1.51-.9-2.7-1.58Q820,392.17,820,387.13A8.14,8.14,0,0,1,822.85,380.76Zm-38.4,61.43,9.78-74.57H778.59l-9.78,74.57Zm-58.24-63.11a21.26,21.26,0,0,1,11,2.91,23.22,23.22,0,0,1,8.2,8.35l12.12-8.66A30.77,30.77,0,0,0,745,369.86q-7.74-3.92-18.59-3.92a45.09,45.09,0,0,0-17.47,3.29,35,35,0,0,0-13.29,9.55,45.14,45.14,0,0,0-11,29.49q0,16.39,10.06,26.15t27,9.76q17.05,0,27.09-10.73t11.21-30.28H726.11l-1.68,13H742.1a21.36,21.36,0,0,1-7.51,10.62,19.91,19.91,0,0,1-12.1,3.8q-10,0-16-6.11t-6-16.46q0-12.53,7.31-20.75A23.64,23.64,0,0,1,726.21,379.08Zm140-11.46-9.83,74.57h15.69l4.27-32.34h30.36l-4.28,32.34H918.1l9.78-74.57H912.34l-3.87,29H878l3.88-29Zm229.42,74.57h17.42l8-16h28.37l3.16,16h16.56l-17.93-74.57h-17Zm50.93-28.27h-19.4l13.86-30ZM1282,444.28a42.19,42.19,0,0,0,15.63-2.6,26.54,26.54,0,0,0,11-8.05,29.92,29.92,0,0,0,4.81-8.78q1.75-5,3.13-15.31l5.5-41.92h-15.43l-5,37c0,.21-.09.56-.15,1.07q-1.79,13.54-4.64,18.23a15.3,15.3,0,0,1-5.76,5.53,16.74,16.74,0,0,1-8,1.86q-6.48,0-9.86-3.54t-3.39-10.42c0-1.49,0-2.86.11-4.12s.17-2.43.3-3.51l5.66-42.13h-15.64l-4.48,34.08q-.83,6.42-1.25,10.8t-.43,6.21q0,12.84,6.92,19.2T1282,444.28ZM959.76,369.33a39.86,39.86,0,0,0-14,10.06,44.16,44.16,0,0,0-11,29q0,16.25,10.09,26t26.84,9.78a43.87,43.87,0,0,0,18.08-3.7,40.91,40.91,0,0,0,14.46-10.82,40,40,0,0,0,7.47-13,46.81,46.81,0,0,0,2.57-15.61q0-15.94-10.09-25.6t-26.84-9.65A44.1,44.1,0,0,0,959.76,369.33Zm38.53,32.57q0,12.23-7.36,20.48a23.63,23.63,0,0,1-18.41,8.25q-9.93,0-15.86-6.14T950.72,408q0-12.31,7.34-20.45a23.8,23.8,0,0,1,18.44-8.12q10,0,15.89,6.08T998.29,401.9ZM23.83,210.49h20.3v-97l9.89-4A18.15,18.15,0,0,0,65.39,92.67V83.06l-21.26,8.3V56.91H67.31V36.8H44.13V.35H23.83V36.8H0V56.91H23.83v42.5L0,108.72v22.12l23.83-9.55ZM194.24,79h-47V47.11H197.3V27.25H147.21V.35H126.65v26.9H79.33V47.11h47.32V79H83.18v4A15.83,15.83,0,0,0,99,98.9h57.23L138.65,130l-9.48-12.81H104.3l23.41,32.14-.21.37L67.13,210.49H96.66L139.9,166l25.28,34.7a23.73,23.73,0,0,0,19.17,9.76h13.88l-44.66-60.36Zm156.11,93.47a20.44,20.44,0,0,0,20.36,18.68h2.55l-6.78-75.1h-21.3ZM380.21,80.3h15.46V210.49h19.52V80.3h16.6V60.94H380.21ZM300.87,67.86h14.34V210.49H335.5V67.86H364V48.25H335.5V.35H315.21v47.9H286.69v5.43A14.18,14.18,0,0,0,300.87,67.86Zm84.69-27L363.26,12.6H341.48l22.31,28.25Zm41.9-28.5H384.54V31.46h42.92Zm-150,178.84H280a20.43,20.43,0,0,0,20.35-18.67l5.17-56.44H284.24ZM245.6,116v94.5h19.26V85.07l15.68-24.64H257.93l-10.62,2.09L285.67,7.89H262.3L222.48,65H245.6l10.83-2.18-34,53.21Zm381.28,72.74V162.15a21.75,21.75,0,0,0-21.75-21.75H475v70.09H605.13A21.75,21.75,0,0,0,626.88,188.73Zm-133.14,5V183.19h87.88v-15.5H493.74V156.87H598.85a9.24,9.24,0,0,1,9.24,9.24v18.41a9.24,9.24,0,0,1-9.24,9.24Zm66-88h42.36V90.53H559.71V78.42h61.18V53.73h20.46V38.08H620.89V27.9c0-7.87-6-14.25-13.38-14.25h-47.8V0h-17.6V13.65H482.79V29.09h59.32v9H460.48V53.73h81.63v8.74H482.79v16h59.32V90.53H500v15.2h42.1v9.71H457.4v16.68h187V115.44H559.71Zm.39-76.44h37.16A5.68,5.68,0,0,1,602.94,35v3.26H560.1Zm0,24.51h42.84v8.69H560.1Zm437.41,72.87,71.07,84h30.61L1008.8,102.24V.56H985.67V102.5l-84,108.2h29.76Zm230.26,27.84h-20.32l-10.58,48.1h20.85Zm28.79-63h-39.09v19.63h99V91.54h-39.09V60.28h42.44V39.88h-42.44V.56h-20.87V39.88h-42.17v20.4h42.17Zm-63.09-53.06h-69.8V56.82h69.8Zm118.36,91.42h-21.11L1286.56,160l-9.32-30.13h-21.11l11.61,36.68h20.85l4.32-29.76,9.42,29.76h20.85Zm-122,28.26a20.25,20.25,0,0,0-20.25-20.25H1127v72.58h62.81Zm-19.53,32.21h-23.48V158h17.75a5.73,5.73,0,0,1,5.73,5.72Zm-40.38-65.95h57V105.55h-57Zm181.14,66.65h-57.76V145.89a14.07,14.07,0,0,0-14.06-14.07H1233V210.7h78.08ZM1186.94,72.87h-57V92h57ZM1184.57,5.8h-52V25.2h52ZM831.11,46.37H727.92V66.82H831.11ZM703.72,20.64h144a7.62,7.62,0,0,1,7.62,7.62V210.49h20.25V19.76A19.2,19.2,0,0,0,856.36.56H683.47V210.49h20.25Zm121.3,84a14.16,14.16,0,0,0-14.16-14.16H734v72.24h91Zm-19.58,38.92H753.58V109.64h46.19a5.67,5.67,0,0,1,5.67,5.67ZM92.52,454.88l22.31,28.26H136.6l-22.3-28.26Zm-27.62-120H44V282.79H23.69v52.13H0V355H23.69V492.51H44V355H64.9ZM179.76,331H142.48v-8.66H191.1V304.24H142.48V282.79H123.72v21.45H73.87v18.09h49.85V331H76.28v72.62H194V345.19A14.2,14.2,0,0,0,179.76,331Zm-56,56.42H92.84V375.8h30.88Zm0-29.16H92.84V347.18h30.88Zm52.95,29.16H142.48V375.8h34.19Zm0-29.16H142.48V347.18H171a5.68,5.68,0,0,1,5.68,5.68Zm-15.95-75.87,10.65,15.79h23.85l-10.65-15.79Zm11.82,128.87H151.29v8.84H59.18v19.43h92.11v38.86a14.13,14.13,0,0,0,14.13,14.13h7.12v-53H194V420.09H172.54Zm241.17-69.42H345.63v17.4h68.08Zm-50.57-59.45H344l-14.59,45.43h18.84l2.92-9.35h70.93V301.33H356.77ZM359.32,465.3v-9.79h18.91a18.23,18.23,0,0,0,18.24-18.24V398.34a18.23,18.23,0,0,0-18.24-18.24H251.64v75.41h20.87l-27.27,37.42h23l27.48-37.42h43.37v15a22.43,22.43,0,0,0,22.43,22.43H420V474.52H368.55A9.23,9.23,0,0,1,359.32,465.3Zm-91.89-24.78v-6h97.16v-14H267.43v-5.47h97.16v-14H267.43v-6.26H374.9a5.77,5.77,0,0,1,5.78,5.77v34.14a5.77,5.77,0,0,1-5.78,5.77Zm56.74-86.77H287.55V341.81h28.13V306.52H287.55v-9.87h36.62V282.38h-92.6v86.17h92.6Zm-76.59-57.1h23.79v9.87H247.58Zm0,22.59h54v9.85h-54Zm23.79,34.51H247.58V341.81h23.79Zm186.78,72h48.71l-29.22,60.47L499.52,485l91.1-4.75,4.69,12.64H616l-14.52-39.12a19.58,19.58,0,0,0-18.35-12.76h-7.12l7.57,20.37-74.56,3.89,19.14-39.59h99.54V406.51H458.15ZM444.06,370H477l67-57.94L609.49,370h32.17L544,282.79Zm53.88-5v19.21h89.73V365.06Z"/></g></svg>