<?xml version="1.0" encoding="utf-8"?>
<!-- Generator: Adobe Illustrator 27.7.0, SVG Export Plug-In . SVG Version: 6.00 Build 0)  -->
<svg version="1.1" id="レイヤー_1" xmlns="http://www.w3.org/2000/svg" xmlns:xlink="http://www.w3.org/1999/xlink" x="0px"
	 y="0px" viewBox="0 0 449.3 449.3" style="enable-background:new 0 0 449.3 449.3;" xml:space="preserve">
<g id="レイヤー_9">
	<path d="M132.6,285.4c1.3,0,2.5,0.3,3.6,1c1.1,0.7,2,1.8,2.6,3l4.2-5.5c-1.1-1.6-2.7-2.9-4.5-3.8c-1.9-0.9-3.9-1.3-6-1.2
		c-3.4-0.1-6.8,1.1-9.3,3.4c-2.4,2.2-3.8,5.3-3.7,8.5c0,1.3,0.2,2.6,0.6,3.8c0.4,1.2,1,2.2,1.9,3.1c1.9,1.8,4.2,3.4,6.6,4.5l1.3,0.7
		c1,0.5,1.9,1.3,2.6,2.2c0.6,0.9,0.9,1.9,0.9,2.9c0.1,1.5-0.5,2.9-1.5,4c-1.1,1-2.6,1.5-4.2,1.4c-1.5,0-3-0.4-4.3-1.2
		c-1.4-0.9-2.5-2.2-3.2-3.6l-4.5,5.7c1.4,1.9,3.2,3.5,5.2,4.5c2.1,1,4.4,1.5,6.7,1.5c4.1,0,7.5-1.1,9.9-3.4c2.5-2.3,3.9-5.6,3.8-9
		c0.1-2.3-0.5-4.5-1.6-6.5c-1.1-1.7-3.1-3.4-6.1-5.1c-0.3-0.2-0.8-0.5-1.4-0.8c-3.3-1.9-4.9-3.7-4.9-5.5c0-1.3,0.5-2.5,1.5-3.4
		C129.8,285.8,131.2,285.3,132.6,285.4z M100.1,319.4h8.3l5.2-39.6h-8.3L100.1,319.4z M174.3,295.1h-16.2l2-15.4h-8.3l-5.2,39.6h8.3
		l2.3-17.2h16.1l-2.3,17.2h8.3l5.2-39.6h-8.3L174.3,295.1z M76.5,305.5h9.4c-0.7,2.3-2.1,4.2-4,5.6c-1.9,1.3-4.1,2.1-6.4,2
		c-3.2,0.1-6.3-1-8.5-3.2c-2.2-2.4-3.4-5.5-3.2-8.7c-0.1-4,1.2-8,3.9-11c2.5-2.9,6.1-4.5,9.8-4.4c2,0,4.1,0.5,5.8,1.5
		c1.8,1.1,3.3,2.6,4.4,4.4l6.4-4.6c-1.6-2.7-3.9-4.9-6.7-6.3c-3.1-1.5-6.5-2.2-9.9-2.1c-3.2,0-6.3,0.6-9.3,1.8
		c-2.7,1.1-5.1,2.8-7.1,5.1c-3.8,4.3-5.9,9.9-5.9,15.7c0,5.8,1.8,10.4,5.3,13.9c3.6,3.5,8.3,5.2,14.3,5.2c6.1,0,10.9-1.9,14.4-5.7
		c3.5-3.8,5.5-9.2,6-16.1h-18L76.5,305.5z M210.9,278.8c-3.2,0-6.4,0.6-9.3,1.9c-2.8,1.2-5.4,3-7.5,5.3c-3.7,4.3-5.8,9.7-5.8,15.4
		c0,5.8,1.8,10.4,5.4,13.8c3.6,3.5,8.3,5.2,14.3,5.2c3.3,0,6.6-0.7,9.6-2c3-1.3,5.6-3.3,7.7-5.8c1.8-2,3.1-4.4,4-6.9
		c0.9-2.7,1.4-5.5,1.4-8.3c0-5.7-1.8-10.2-5.4-13.6S216.8,278.7,210.9,278.8L210.9,278.8z M218.1,308.8c-2.4,2.9-6,4.5-9.8,4.4
		c-3.1,0.1-6.2-1-8.4-3.3c-2.2-2.4-3.3-5.5-3.2-8.8c-0.1-4,1.3-7.9,3.9-10.9c2.5-2.8,6-4.4,9.8-4.3c3.1-0.2,6.2,1,8.4,3.2
		c2.2,2.4,3.3,5.5,3.1,8.7C222.1,301.9,220.7,305.8,218.1,308.8L218.1,308.8z M294.2,279.7l-20.5,39.6h9.3l4.3-8.5h15.1l1.7,8.5h8.8
		l-9.5-39.6H294.2z M290.5,304.3l7.4-15.9l2.9,15.9H290.5z M383.1,299.3c0,0.1,0,0.3-0.1,0.6c-0.6,4.8-1.4,8-2.5,9.7
		c-0.7,1.2-1.8,2.2-3.1,2.9c-1.3,0.7-2.8,1-4.3,1c-1.9,0.1-3.8-0.5-5.2-1.9c-1.3-1.5-1.9-3.5-1.8-5.5c0-0.8,0-1.5,0.1-2.2
		c0-0.7,0.1-1.3,0.2-1.9l3-22.4h-8.3l-2.4,18.1c-0.3,2.3-0.5,4.2-0.7,5.7s-0.2,2.6-0.2,3.3c0,4.5,1.2,7.9,3.7,10.2
		c2.5,2.3,6.2,3.4,11.2,3.4c2.8,0.1,5.6-0.4,8.3-1.4c2.3-0.9,4.3-2.4,5.8-4.3c1.1-1.4,2-3,2.6-4.7c0.8-2.6,1.4-5.4,1.7-8.1l2.9-22.3
		h-8.2L383.1,299.3z M345.4,279.7l-15.5,17.8l2.4-17.8h-8.3l-5.2,39.6h8.3l1.2-9.5l5.2-5.9l8.6,15.3h9.3L339,297.9l16.2-18.2H345.4z
		 M261.8,295.1h-16.2l2.1-15.4h-8.3l-5.2,39.6h8.3l2.3-17.2h16.1l-2.3,17.2h8.3l5.2-39.6h-8.2L261.8,295.1z M129.5,216.7l21.6-37.8
		h-25v-17h26.6v-10.5h-26.6v-14.3h-10.9v14.3H90v10.6h25.1v17H92.1v2.1c0,4.6,3.8,8.4,8.4,8.4h30.4l-9.3,16.6l-5-6.8h-13.3
		l12.4,17.1l-0.1,0.2l-32.1,32.3h15.7l23-23.6l13.4,18.4c2.4,3.3,6.2,5.2,10.2,5.2h7.4L129.5,216.7z M60.5,248.7h10.8v-51.5l5.2-2.1
		c3.7-1.5,6-5,6.1-8.9V181l-11.3,4.4v-18.3h12.3v-10.6H71.3v-19.4H60.5v19.4H47.9v10.7h12.7v22.6l-12.7,4.9v11.8l12.7-5.1V248.7z
		 M268.5,237.2v-14.1c0-6.4-5.2-11.6-11.6-11.6h-69.2v37.2h69.1C263.3,248.7,268.5,243.6,268.5,237.2L268.5,237.2z M197.8,239.8
		v-5.6h46.7V226h-46.7v-5.8h55.8c2.7,0,4.9,2.2,4.9,4.9l0,0v9.8c0,2.7-2.2,4.9-4.9,4.9l0,0L197.8,239.8z M277.9,198.2h-45v-5.1h22.5
		V185h-22.6v-6.4h32.5v-13.1h10.9v-8.3h-10.9v-5.4c0.1-4.1-3.1-7.4-7.1-7.6h-25.4v-7.2h-9.4v7.2h-31.5v8.2h31.5v4.8h-43.4v8.3h43.4
		v4.6h-31.5v8.5h31.5v6.4h-22.4v8.1h22.4v5.1h-45v8.9h99.4L277.9,198.2z M233,152.5h19.7c1.7,0,3,1.3,3,3v1.7H233V152.5z M233,165.5
		h22.8v4.6H233V165.5z M401.4,145.6l-5.7-8.4h-12.7l5.7,8.4H401.4z M310.3,248.8h10.8v-73h11.1v-10.7h-11.1v-27.7h-10.8v27.7h-12.6
		v10.7h12.6V248.8z M389.4,205.7h-11.3v4.7h-48.9v10.3h48.9v20.6c0,4.1,3.4,7.5,7.5,7.5l0,0h3.8v-28.1h11.4v-10.3h-11.4V205.7z
		 M393.2,163h-19.8v-4.6h25.8v-9.6h-25.8v-11.4h-10v11.4H337v9.6h26.5v4.6h-25.2v38.6h62.5v-31C400.8,166.4,397.4,163,393.2,163
		C393.3,163,393.2,163,393.2,163z M363.4,193H347v-6.2h16.4L363.4,193z M363.4,177.5H347v-5.9h16.4L363.4,177.5z M391.6,193h-18.2
		v-6.2h18.2V193z M391.6,177.5h-18.2v-5.9h15.1c1.7,0,3,1.3,3,3L391.6,177.5z M370.3,243.9l-11.9-15h-11.6l11.9,15H370.3z"/>
</g>
</svg>
